<svg width="16" height="16" viewBox="0 0 16 16" fill="none" xmlns="http://www.w3.org/2000/svg">
<mask id="mask0_53_320" style="mask-type:alpha" maskUnits="userSpaceOnUse" x="0" y="0" width="16" height="16">
<rect width="16" height="16" fill="#D9D9D9"/>
</mask>
<g mask="url(#mask0_53_320)">
<g clip-path="url(#clip0_53_320)">
<path d="M2.16667 4.5H5.08333V4C5.08333 3.45 5.60833 3 6.25 3H9.75C10.3917 3 10.9167 3.45 10.9167 4V4.5H13.8333C14.475 4.5 15 4.95 15 5.5V7C15 7.55 14.475 8 13.8333 8H9.16667V7.75C9.16667 7.6 9.05 7.5 8.875 7.5H7.125C6.95 7.5 6.83333 7.6 6.83333 7.75V8H2.16667C1.525 8 1 7.55 1 7V5.5C1 4.95 1.525 4.5 2.16667 4.5ZM6.25 4.5H9.75V4H6.25V4.5Z" fill="white"/>
<path d="M1.175 8.275C1.2625 8.225 1.37917 8.25 1.46667 8.3C1.67083 8.425 1.90417 8.5 2.16667 8.5H6.83333V9.25C6.83333 9.4 6.95 9.5 7.125 9.5H8.875C9.05 9.5 9.16667 9.4 9.16667 9.25V8.5H13.8333C14.0958 8.5 14.3292 8.425 14.5333 8.3C14.6208 8.25 14.7375 8.225 14.825 8.275C14.9417 8.3 15 8.4 15 8.5V12C15 12.55 14.475 13 13.8333 13H2.16667C1.525 13 1 12.55 1 12V8.5C1 8.4 1.05833 8.3 1.175 8.275Z" fill="white"/>
</g>
</g>
<defs>
<clipPath id="clip0_53_320">
<rect width="14" height="10" fill="white" transform="matrix(-1 0 0 1 15 3)"/>
</clipPath>
</defs>
</svg>
