<svg width="40" height="40" viewBox="0 0 40 40" fill="none" xmlns="http://www.w3.org/2000/svg">
<rect width="40" height="40" rx="20" fill="#E5F6ED"/>
<path d="M19.9999 21.4653L26.2303 27.6956C26.6355 28.1012 27.291 28.1012 27.6962 27.6956C28.1013 27.2905 28.1013 26.6349 27.6962 26.2298L21.4657 19.9995L27.6962 13.7692C28.1013 13.3641 28.1013 12.7091 27.6962 12.3035C27.291 11.8979 26.6355 11.8979 26.2303 12.3035L19.9999 18.5337L13.7694 12.3035C13.3643 11.8979 12.7087 11.8979 12.3036 12.3035C12.1013 12.5053 12.0001 12.7708 12.0001 13.0363C12.0001 13.3019 12.1018 13.5669 12.3036 13.7692L18.5341 19.9995L12.3036 26.2298C12.1013 26.4321 12.0001 26.6971 12.0001 26.9627C12.0001 27.2282 12.1018 27.4932 12.3036 27.6956C12.7087 28.1011 13.3643 28.1011 13.7694 27.6956L19.9999 21.4653Z" fill="#00A94F"/>
</svg>
