<svg width="40" height="40" viewBox="0 0 40 40" fill="none" xmlns="http://www.w3.org/2000/svg">
<circle cx="20" cy="20" r="20" fill="#00A94F"/>
<path d="M25.8295 12.011L19.9949 17.8456L14.4024 12.2531C13.8239 11.6745 12.8388 11.6954 12.2352 12.299C11.6316 12.9026 11.6107 13.8877 12.1893 14.4662L17.8139 20.0908L11.9793 25.9254C11.3436 26.4968 11.3228 27.4819 11.9013 28.0605C12.4798 28.639 13.4649 28.6181 14.0685 28.0146L19.9366 22.1465L25.5612 27.7711C26.1398 28.3496 27.1249 28.3288 27.7284 27.7252C28.332 27.1216 28.3529 26.1365 27.7744 25.558L22.1497 19.9333L28.0178 14.0652C28.6214 13.4617 28.6423 12.4766 28.0637 11.898C27.4852 11.3195 26.433 11.4074 25.8295 12.011Z" fill="white"/>
</svg>
