<svg width="24" height="24" viewBox="0 0 24 24" fill="none" xmlns="http://www.w3.org/2000/svg">
<path d="M22 15.2724V5.45448C22 4.09889 20.8807 3 19.5 3H4.5C3.11927 3 2 4.09889 2 5.45448V20.1813C2 20.6334 2.37292 20.9995 2.83281 21C3.0224 21 3.20625 20.9366 3.35417 20.8205L7.06406 17.9063C7.21146 17.7908 7.39427 17.7274 7.58333 17.7274H19.5C20.8807 17.7274 22 16.6285 22 15.2729V15.2724ZM12.7667 13.947C12.6911 14.1525 12.526 14.3146 12.3167 14.3888C12.1151 14.4762 11.8849 14.4762 11.6833 14.3888C11.474 14.3146 11.3089 14.1525 11.2333 13.947C11.1906 13.8488 11.1682 13.7429 11.1667 13.6361C11.1698 13.4192 11.2562 13.2122 11.4083 13.0552C11.4896 12.9831 11.5823 12.9248 11.6833 12.8834C11.8844 12.7934 12.1156 12.7934 12.3167 12.8834C12.4177 12.9248 12.5104 12.9831 12.5917 13.0552C12.7453 13.2111 12.8318 13.4192 12.8333 13.6361C12.8318 13.7429 12.8094 13.8488 12.7667 13.947ZM12.926 11.0834C12.8339 11.1376 12.7797 11.2378 12.7854 11.3437C12.7854 11.7957 12.4125 12.1618 11.9521 12.1618C11.4917 12.1618 11.1187 11.7957 11.1187 11.3437C11.1073 10.5761 11.5677 9.87713 12.2854 9.57237C12.7354 9.3888 12.949 8.88205 12.7625 8.44024C12.649 8.17127 12.4057 7.97645 12.1146 7.92122C11.6859 7.84452 11.263 8.08281 11.1146 8.48473C10.9562 8.90915 10.4776 9.12699 10.0458 8.97205C9.61875 8.81864 9.39583 8.35792 9.54479 7.93605C10.0146 6.63314 11.4708 5.95048 12.7984 6.41121C14.1255 6.87245 14.8208 8.30218 14.3516 9.60561C14.1104 10.275 13.5911 10.8124 12.9224 11.0834H12.9266H12.926Z" fill="#666666"/>
</svg>
