<svg width="24" height="24" viewBox="0 0 24 24" fill="none" xmlns="http://www.w3.org/2000/svg">
<path fill-rule="evenodd" clip-rule="evenodd" d="M7 1.99902C6.20571 1.99902 5.44 2.31667 4.88 2.87549C4.32 3.4402 4 4.19902 4 4.99902V18.999C4 19.7931 4.31429 20.5578 4.88 21.1225C5.44 21.6873 6.20571 21.999 7 21.999H17C17.7943 21.999 18.56 21.6814 19.12 21.1225C19.68 20.5578 20 19.799 20 18.999V4.99902C20 4.20491 19.6857 3.4402 19.12 2.87549C18.56 2.31079 17.7943 1.99902 17 1.99902L7 1.99902ZM7 5.99902C7 5.73432 7.10286 5.48138 7.29143 5.29314C7.48 5.10491 7.73143 4.99902 8 4.99902H16C16.2629 4.99902 16.52 5.10491 16.7086 5.29314C16.8971 5.48138 17 5.73432 17 5.99902V9.99902C17 10.2637 16.8971 10.5167 16.7086 10.7049C16.52 10.8931 16.2686 10.999 16 10.999H8C7.73714 10.999 7.48 10.8931 7.29143 10.7049C7.10286 10.5167 7 10.2637 7 9.99902V5.99902ZM8 12.999C7.73714 12.999 7.48 13.1049 7.29143 13.2931C7.10286 13.4814 7 13.7343 7 13.999C7 14.2637 7.10286 14.5167 7.29143 14.7049C7.48 14.8931 7.73143 14.999 8 14.999H8.01143C8.27429 14.999 8.53143 14.8931 8.72 14.7049C8.90857 14.5167 9.01143 14.2637 9.01143 13.999C9.01143 13.7343 8.90857 13.4814 8.72 13.2931C8.53143 13.1049 8.28 12.999 8.01143 12.999H8ZM11 13.999C11 13.7343 11.1029 13.4814 11.2914 13.2931C11.48 13.1049 11.7314 12.999 12 12.999H12.0114C12.2743 12.999 12.5314 13.1049 12.72 13.2931C12.9086 13.4814 13.0114 13.7343 13.0114 13.999C13.0114 14.2637 12.9086 14.5167 12.72 14.7049C12.5314 14.8931 12.28 14.999 12.0114 14.999H12C11.7371 14.999 11.48 14.8931 11.2914 14.7049C11.1029 14.5167 11 14.2637 11 13.999ZM12 15.999C11.7371 15.999 11.48 16.1049 11.2914 16.2931C11.1029 16.4814 11 16.7343 11 16.999C11 17.2637 11.1029 17.5167 11.2914 17.7049C11.48 17.8931 11.7314 17.999 12 17.999H12.0114C12.2743 17.999 12.5314 17.8931 12.72 17.7049C12.9086 17.5167 13.0114 17.2637 13.0114 16.999C13.0114 16.7343 12.9086 16.4814 12.72 16.2931C12.5314 16.1049 12.28 15.999 12.0114 15.999H12ZM7 16.999C7 16.7343 7.10286 16.4814 7.29143 16.2931C7.48 16.1049 7.73143 15.999 8 15.999H8.01143C8.27429 15.999 8.53143 16.1049 8.72 16.2931C8.90857 16.4814 9.01143 16.7343 9.01143 16.999C9.01143 17.2637 8.90857 17.5167 8.72 17.7049C8.53143 17.8931 8.28 17.999 8.01143 17.999H8C7.73714 17.999 7.48 17.8931 7.29143 17.7049C7.10286 17.5167 7 17.2637 7 16.999ZM17 13.999C17 13.7343 16.8971 13.4814 16.7086 13.2931C16.52 13.1049 16.2686 12.999 16 12.999C15.7314 12.999 15.48 13.1049 15.2914 13.2931C15.1029 13.4814 15 13.7343 15 13.999V16.999C15 17.2637 15.1029 17.5167 15.2914 17.7049C15.48 17.8931 15.7314 17.999 16 17.999C16.2686 17.999 16.52 17.8931 16.7086 17.7049C16.8971 17.5167 17 17.2637 17 16.999V13.999Z" fill="#666666"/>
</svg>
