<svg width="26" height="26" viewBox="0 0 26 26" fill="none" xmlns="http://www.w3.org/2000/svg">
<path fill-rule="evenodd" clip-rule="evenodd" d="M26 13C26 20.1887 20.1708 26 13 26C5.82923 26 0 20.1887 0 13C0 5.81135 5.82923 0 13 0C20.1708 0 26 5.81135 26 13ZM13 24.2584C19.2224 24.2584 24.2667 19.2179 24.2667 13C24.2667 6.78213 19.2224 1.74155 13 1.74155C6.77759 1.74155 1.73333 6.78213 1.73333 13C1.73333 19.2179 6.77759 24.2584 13 24.2584Z" fill="white"/>
<mask id="mask0_53_352" style="mask-type:luminance" maskUnits="userSpaceOnUse" x="1" y="1" width="24" height="24">
<path d="M13.0001 24.2675C19.2225 24.2675 24.2667 19.2233 24.2667 13.0009C24.2667 6.77845 19.2225 1.73419 13.0001 1.73419C6.77766 1.73419 1.7334 6.77845 1.7334 13.0009C1.7334 19.2233 6.77766 24.2675 13.0001 24.2675Z" fill="white"/>
</mask>
<g mask="url(#mask0_53_352)">
<path d="M29.9362 1.73419H-3.93604V24.2675H29.9362V1.73419Z" fill="#EB2027"/>
<path d="M29.9362 5.52582H-3.93604V20.5119H29.9362V5.52582Z" fill="white"/>
<path d="M29.9362 9.28143H-3.93604V16.7564H29.9362V9.28143Z" fill="#241C4E"/>
</g>
</svg>
