<svg width="24" height="24" viewBox="0 0 24 24" fill="none" xmlns="http://www.w3.org/2000/svg">
<path d="M20.7917 10.6816H3.20833C2.54167 10.6816 2 11.2726 2 11.9999C2 12.7271 2.54167 13.3181 3.20833 13.3181H20.7917C21.4583 13.3181 22 12.7271 22 11.9999C22 11.2726 21.4583 10.6816 20.7917 10.6816Z" fill="#666666"/>
<path d="M3.20833 6.63642H20.7917C21.4583 6.63642 22 6.0455 22 5.31821C22 4.59092 21.4583 4 20.7917 4H3.20833C2.54167 4 2 4.59092 2 5.31821C2 6.0455 2.54167 6.63642 3.20833 6.63642Z" fill="#666666"/>
<path d="M20.7917 17.3633H3.20833C2.54167 17.3633 2 17.9542 2 18.6815C2 19.4088 2.54167 19.9997 3.20833 19.9997H20.7917C21.4583 19.9997 22 19.4088 22 18.6815C22 17.9542 21.4583 17.3633 20.7917 17.3633Z" fill="#666666"/>
</svg>
