<svg width="24" height="24" viewBox="0 0 24 24" fill="none" xmlns="http://www.w3.org/2000/svg">
<path d="M20.7917 10.682H3.20833C2.54167 10.682 2 11.2729 2 12.0002C2 12.7275 2.54167 13.3184 3.20833 13.3184H20.7917C21.4583 13.3184 22 12.7275 22 12.0002C22 11.2729 21.4583 10.682 20.7917 10.682Z" fill="white"/>
<path d="M3.20833 6.63642H20.7917C21.4583 6.63642 22 6.0455 22 5.31821C22 4.59092 21.4583 4 20.7917 4H3.20833C2.54167 4 2 4.59092 2 5.31821C2 6.0455 2.54167 6.63642 3.20833 6.63642Z" fill="white"/>
<path d="M20.7917 17.3636H3.20833C2.54167 17.3636 2 17.9545 2 18.6818C2 19.4091 2.54167 20 3.20833 20H20.7917C21.4583 20 22 19.4091 22 18.6818C22 17.9545 21.4583 17.3636 20.7917 17.3636Z" fill="white"/>
</svg>
