<svg width="24" height="24" viewBox="0 0 24 24" fill="none" xmlns="http://www.w3.org/2000/svg">
<path d="M19.3434 3H9.17641C8.25041 3 7.51953 3.75756 7.51953 4.66917V9.22124C7.51953 10.152 8.26905 10.8904 9.17641 10.8904H19.3434C20.2694 10.8904 21.0003 10.1329 21.0003 9.22124V4.66917C21.0003 3.73843 20.2504 3 19.3434 3ZM15.9544 8.61456H10.306C9.60706 8.58835 9.60742 7.57792 10.306 7.55207H15.9544C16.6533 7.57828 16.6529 8.58871 15.9544 8.61456ZM18.2138 6.33835H10.3063C9.60742 6.31214 9.60777 5.30171 10.3063 5.27586H18.2138C18.9127 5.30206 18.912 6.31249 18.2138 6.33835Z" fill="#666666"/>
<path d="M6.31453 16.2015C6.23121 13.9901 3.08339 13.9904 3.00042 16.2008V16.2015C3.02678 16.9056 4.02942 16.9045 4.05508 16.2008C4.05508 15.8664 4.32508 15.5944 4.6573 15.5944C4.98952 15.5944 5.25951 15.8668 5.25951 16.2011C5.25951 16.426 5.17268 16.6378 5.01448 16.7968L3.1544 18.6707C3.00358 18.8226 2.95858 19.0511 3.04014 19.2498C3.1217 19.4484 3.31401 19.5777 3.5274 19.5777H5.78684C6.48573 19.5515 6.48538 18.5411 5.78684 18.5152H4.80073L5.76047 17.5484C6.11765 17.1885 6.31417 16.7101 6.31417 16.2015H6.31453Z" fill="#666666"/>
<path d="M3.52751 8.4056C2.82862 8.43181 2.82897 9.44224 3.52751 9.46809H5.78695C6.48584 9.44188 6.48549 8.43146 5.78695 8.4056H5.18474V4.95392C5.18474 4.73894 5.05642 4.54522 4.8592 4.46305C4.66198 4.38088 4.43522 4.42622 4.28441 4.57815L3.15451 5.71608C2.9485 5.92362 2.9485 6.25972 3.15451 6.46726C3.36052 6.6748 3.69414 6.6748 3.90016 6.46726L4.12972 6.23599V8.40525H3.52751V8.4056Z" fill="#666666"/>
<path d="M19.3434 13.1096H9.17641C8.25041 13.1096 7.51953 13.8672 7.51953 14.7788V19.3309C7.51953 20.2616 8.26905 21 9.17641 21H19.3434C20.2694 21 21.0003 20.2425 21.0003 19.3309V14.7788C21.0003 13.8481 20.2504 13.1096 19.3434 13.1096ZM15.9544 18.7242H10.306C9.60706 18.698 9.60742 17.6875 10.306 17.6617H15.9544C16.6533 17.6879 16.6529 18.6983 15.9544 18.7242ZM18.2138 16.448H10.3063C9.60742 16.4218 9.60777 15.4113 10.3063 15.3855H18.2138C18.9127 15.4117 18.912 16.4221 18.2138 16.448Z" fill="#666666"/>
</svg>
