<svg width="24" height="24" viewBox="0 0 24 24" fill="none" xmlns="http://www.w3.org/2000/svg">
<path d="M17.4762 9.77302H8.52381C8.38095 9.77302 8.2381 9.63169 8.2381 9.49036V7.37045C8.2381 5.43897 9.80952 3.88437 11.7619 3.88437H12.2381C14.1905 3.88437 15.7619 5.43897 15.7619 7.37045C15.7619 7.88865 16.1905 8.31263 16.7143 8.31263C17.2381 8.31263 17.6667 7.88865 17.6667 7.37045C17.6667 4.40257 15.2381 2 12.2381 2H11.7619C8.76191 2 6.33333 4.40257 6.33333 7.37045V9.49036C6.33333 9.63169 6.2381 9.72591 6.09524 9.77302C4.85714 10.0086 4 10.9979 4 12.2227V17.4304C4 19.9272 6.09524 22 8.61905 22H15.381C17.9048 22 20 19.9272 20 17.4304V12.2698C20 11.6103 19.7619 10.9507 19.2857 10.4797C18.8095 10.0557 18.1429 9.77302 17.4762 9.77302ZM18.0952 17.4775C18.0952 18.9379 16.8571 20.1627 15.381 20.1627H8.61905C7.14286 20.1627 5.90476 18.9379 5.90476 17.4775V12.2698C5.90476 11.94 6.19048 11.6574 6.52381 11.6574H17.4762C17.8095 11.6574 18.0952 11.94 18.0952 12.2698V17.4775Z" fill="#666666"/>
</svg>
