<svg width="124" height="32" viewBox="0 0 124 32" fill="none" xmlns="http://www.w3.org/2000/svg">
<path d="M122.866 16.0968C122.866 24.2428 116.269 30.8596 108.117 30.8596C99.965 30.8596 93.3682 24.2567 93.3682 16.0968C93.3682 7.93694 99.9788 1.33398 108.131 1.33398C116.283 1.33398 122.88 7.93694 122.88 16.0968" fill="white"/>
<path d="M115.561 23.7431C114.867 23.3956 114.159 23.0342 113.075 23.0342C112.117 23.0342 111.353 23.3817 110.603 23.7292C109.826 24.0907 109.02 24.466 107.951 24.466C107.006 24.466 106.298 24.1324 105.534 23.7848C104.756 23.4234 103.951 23.0481 102.868 23.0481C101.909 23.0481 101.146 23.3956 100.396 23.7292C99.6179 24.0907 98.7985 24.4521 97.7292 24.4521C97.6736 24.4521 97.6181 24.4521 97.5625 24.4521C97.6736 24.5911 97.7847 24.7162 97.8958 24.8552C98.9652 24.8274 99.7846 24.4521 100.562 24.1046C101.298 23.7709 101.993 23.4512 102.868 23.4512C103.868 23.4512 104.59 23.7848 105.368 24.1463C106.131 24.4938 106.923 24.8691 107.951 24.8691C109.117 24.8691 109.964 24.4799 110.784 24.1046C111.52 23.7709 112.214 23.4512 113.089 23.4512C114.075 23.4512 114.714 23.7709 115.395 24.1185C116.131 24.4938 116.895 24.883 118.144 24.883C118.269 24.744 118.381 24.605 118.492 24.466C118.381 24.466 118.269 24.466 118.158 24.466C116.992 24.466 116.27 24.1046 115.575 23.7431" fill="#99877D"/>
<path d="M113.075 23.7988C112.117 23.7988 111.353 24.1464 110.603 24.4939C109.825 24.8553 109.02 25.2306 107.951 25.2306C107.006 25.2306 106.298 24.897 105.534 24.5495C104.756 24.1881 103.951 23.8127 102.868 23.8127C101.909 23.8127 101.145 24.1603 100.395 24.4939C99.7289 24.7997 99.0483 25.1055 98.2012 25.1889C98.3123 25.314 98.4373 25.4391 98.5484 25.5503C99.3122 25.4252 99.9372 25.1472 100.562 24.8692C101.298 24.5356 101.993 24.2159 102.868 24.2159C103.867 24.2159 104.59 24.5495 105.367 24.9109C106.131 25.2584 106.923 25.6338 107.951 25.6338C109.117 25.6338 109.964 25.2445 110.784 24.8692C111.52 24.5356 112.214 24.2159 113.089 24.2159C114.075 24.2159 114.714 24.5356 115.395 24.8831C115.992 25.1889 116.603 25.4947 117.464 25.606C117.589 25.4808 117.714 25.3557 117.825 25.2306C116.853 25.175 116.2 24.8414 115.575 24.5217C114.881 24.1742 114.172 23.8127 113.089 23.8127" fill="#99877D"/>
<path d="M113.076 24.5488C112.118 24.5488 111.354 24.8964 110.604 25.2439C109.826 25.6053 109.02 25.9806 107.951 25.9806C107.007 25.9806 106.298 25.647 105.535 25.2995C104.757 24.9381 103.951 24.5627 102.868 24.5627C101.91 24.5627 101.146 24.9103 100.396 25.2439C99.91 25.4663 99.41 25.6887 98.8545 25.8277C98.9656 25.9389 99.0906 26.0501 99.2017 26.1474C99.6878 26.0084 100.132 25.7999 100.549 25.6192C101.285 25.2856 101.979 24.9659 102.854 24.9659C103.854 24.9659 104.576 25.2995 105.354 25.6609C106.118 26.0084 106.91 26.3838 107.937 26.3838C109.104 26.3838 109.951 25.9945 110.77 25.6192C111.506 25.2856 112.201 24.9659 113.076 24.9659C114.062 24.9659 114.701 25.2856 115.381 25.6331C115.812 25.8555 116.242 26.064 116.77 26.2169C116.895 26.1057 117.02 25.9945 117.131 25.8833C116.506 25.7443 116.034 25.508 115.562 25.2717C114.867 24.9242 114.159 24.5627 113.076 24.5627" fill="#99877D"/>
<path d="M113.076 25.3136C112.117 25.3136 111.353 25.6612 110.604 26.0087C109.826 26.3701 109.02 26.7315 107.951 26.7315C107.007 26.7315 106.298 26.3979 105.534 26.0504C104.757 25.689 103.951 25.3136 102.868 25.3136C101.91 25.3136 101.146 25.6612 100.396 25.9948C100.104 26.1199 99.7987 26.2589 99.4932 26.3701C99.6182 26.4674 99.7293 26.5647 99.8543 26.662C100.09 26.5647 100.326 26.4674 100.549 26.3562C101.285 26.0226 101.979 25.7029 102.854 25.7029C103.854 25.7029 104.576 26.0365 105.354 26.3979C106.118 26.7454 106.909 27.1208 107.937 27.1208C109.104 27.1208 109.951 26.7315 110.77 26.3562C111.506 26.0226 112.201 25.7029 113.076 25.7029C114.062 25.7029 114.701 26.0226 115.381 26.3701C115.617 26.4952 115.853 26.6064 116.117 26.7176C116.242 26.6203 116.367 26.523 116.478 26.4257C116.145 26.3006 115.853 26.1477 115.562 26.0087C114.867 25.6612 114.159 25.2997 113.076 25.2997" fill="#99877D"/>
<path d="M113.075 26.0782C112.117 26.0782 111.353 26.4257 110.603 26.7732C109.826 27.1346 109.02 27.4961 107.951 27.4961C107.006 27.4961 106.298 27.1624 105.534 26.8149C104.757 26.4535 103.951 26.0782 102.868 26.0782C101.909 26.0782 101.146 26.4257 100.396 26.7593C100.312 26.801 100.229 26.8427 100.132 26.8705C100.257 26.9678 100.382 27.0512 100.521 27.1346C100.535 27.1346 100.548 27.1346 100.562 27.1207C101.298 26.7871 101.993 26.4674 102.868 26.4674C103.868 26.4674 104.59 26.8149 105.368 27.1624C106.131 27.51 106.923 27.8853 107.951 27.8853C109.117 27.8853 109.965 27.4961 110.784 27.1207C111.52 26.7871 112.214 26.4674 113.089 26.4674C114.075 26.4674 114.714 26.7871 115.395 27.1346C115.422 27.1485 115.45 27.1624 115.478 27.1763C115.603 27.0929 115.728 27.0095 115.853 26.9122C115.756 26.8705 115.659 26.8149 115.561 26.7732C114.867 26.4257 114.159 26.0643 113.075 26.0643" fill="#99877D"/>
<path d="M110.604 27.5378C109.826 27.8992 109.02 28.2607 107.951 28.2607C107.007 28.2607 106.298 27.927 105.534 27.5795C104.757 27.2181 103.951 26.8428 102.868 26.8428C102.09 26.8428 101.437 27.0652 100.812 27.3432C100.951 27.4405 101.09 27.5239 101.243 27.6073C101.757 27.3988 102.271 27.2598 102.868 27.2598C103.868 27.2598 104.59 27.6073 105.368 27.9549C106.132 28.3024 106.923 28.6777 107.951 28.6777C109.118 28.6777 109.965 28.2885 110.784 27.9131C111.52 27.5795 112.215 27.2598 113.076 27.2598C113.77 27.2598 114.298 27.4266 114.784 27.6351C114.923 27.5517 115.062 27.4683 115.2 27.3849C114.617 27.1069 113.978 26.8567 113.076 26.8567C112.117 26.8567 111.353 27.2042 110.604 27.5517" fill="#99877D"/>
<path d="M108.02 0C99.1875 0 92.0352 7.15899 92.0352 16C92.0352 24.841 99.1875 32 108.02 32C116.853 32 124.005 24.841 124.005 16C124.005 7.15899 116.853 0 108.02 0ZM108.02 29.4422C100.604 29.4422 94.5905 23.4231 94.5905 16C94.5905 8.57689 100.604 2.55778 108.02 2.55778C115.436 2.55778 121.45 8.57689 121.45 16C121.45 23.4231 115.436 29.4422 108.02 29.4422Z" fill="#EE3124"/>
<path d="M115.589 12.0379C115.492 12.5383 114.978 13.0527 114.7 13.289C114.075 13.7894 109.936 16.3194 109.478 16.9032C109.02 17.4871 108.937 18.3489 108.937 19.0023V23.8676H109.575V22.6026C109.575 22.1717 109.825 21.5045 110.325 20.9623C111.186 20.0727 113.158 18.9467 114.45 18.0014C115.533 17.2091 115.603 16.1248 115.603 15.1934V11.8711V12.024L115.589 12.0379Z" fill="#00A94F"/>
<path d="M108.937 16.5973C109.395 16.0274 113.659 13.414 114.27 12.9136C114.881 12.4131 115.589 11.6486 115.589 10.6894V5.24023C115.589 6.00479 115.159 6.58863 114.603 7.31148C113.978 8.13163 111.103 9.68854 109.687 10.6894C108.27 11.6903 107.784 12.6772 107.784 13.9005V23.8536H108.423V18.6547C108.423 18.0013 108.465 17.1534 108.937 16.5834" fill="#00A94F"/>
<path d="M105.701 10.9675C104.396 9.96662 101.743 7.82587 101.437 7.40884C101.132 6.99181 100.438 6.22726 100.438 5.2959V10.3558C100.438 11.0787 100.785 12.3854 102.049 13.3028C103.312 14.2203 105.09 15.5687 105.618 16.0969C106.159 16.6391 106.645 17.5982 106.645 18.9744V23.8537H107.27V14.123C107.27 12.5522 106.993 11.9545 105.687 10.9536" fill="#00A94F"/>
<path d="M0 4.57336H7.87448L7.69394 14.2206H7.87448C8.05503 13.3032 8.55499 12.5108 8.99941 11.7185L12.888 4.57336H21.7069L14.749 15.4022L22.443 26.8288H13.0686L9.2355 20.1007C8.76331 19.2389 8.05503 18.4187 7.87448 17.5013H7.69394L7.87448 26.8288H0V4.57336Z" fill="#99877D"/>
<path d="M23.8877 4.57318H29.2762C33.401 4.57318 35.9425 6.19959 35.9425 10.6201C35.9425 12.2187 35.3869 14.0397 33.9981 14.9294C36.623 15.402 37.8034 18.0571 37.8034 20.5037C37.8034 24.8686 34.7342 26.8147 30.6928 26.8147H23.8877V4.57318ZM28.2207 13.8451H28.7485C30.8733 13.8451 31.9011 13.2196 31.9011 10.9259C31.9011 8.63226 30.6095 8.06232 28.7763 8.06232H28.2207V13.8451ZM28.2207 23.3534H29.1374C31.4705 23.3534 33.4704 23.0615 33.4704 20.1701C33.4704 17.2787 31.1094 17.1535 28.929 17.1535H28.2207V23.3534Z" fill="#99877D"/>
<path d="M53.7464 26.8288H49.6773V25.4943H49.6217C48.7329 26.648 47.2052 27.3014 45.7053 27.3014C41.4556 27.3014 39.0391 23.4369 39.0391 19.5029C39.0391 15.569 41.4833 11.8574 45.6359 11.8574C47.1358 11.8574 48.6773 12.5108 49.6773 13.6923V12.3301H53.7464V26.8149V26.8288ZM50.0939 19.5725C50.0939 17.6263 48.7607 15.5273 46.6497 15.5273C44.5387 15.5273 43.2332 17.6263 43.2332 19.5725C43.2332 21.5186 44.5248 23.6454 46.6497 23.6454C48.7745 23.6454 50.0939 21.5186 50.0939 19.5725Z" fill="#99877D"/>
<path d="M60.8433 13.6644H60.8988C61.7599 12.3717 63.2042 11.8712 64.6763 11.8712C68.565 11.8712 69.6899 14.6097 69.6899 17.9737V26.8286H65.5652V19.1553C65.5652 17.4177 65.6485 15.1657 63.3292 15.1657C60.8849 15.1657 60.8571 17.9042 60.8571 19.6558V26.8286H56.7324V12.3438H60.8571V13.6644H60.8433Z" fill="#99877D"/>
<path d="M76.7724 17.6402H76.828L81.161 12.3301H86.5218L80.4249 18.7106L86.994 26.8288H81.5777L76.828 20.6568H76.7724V26.8288H72.6338V1.79315H76.7724V17.6402Z" fill="#99877D"/>
</svg>
