<svg width="40" height="40" viewBox="0 0 40 40" fill="none" xmlns="http://www.w3.org/2000/svg">
<rect width="40" height="40" rx="20" fill="#00A94F"/>
<g clip-path="url(#clip0_12_1052)">
<path d="M19.9996 6.36353C11.9814 6.36353 5.4541 11.7523 5.4541 18.3755C5.4541 24.3071 10.6297 29.2772 17.6177 30.222C18.0916 30.3237 18.7365 30.5408 18.9001 30.9497C19.0456 31.3208 18.9961 31.8946 18.9461 32.2817L18.7473 33.539C18.6927 33.9101 18.4564 35.0008 20.0189 34.3345C21.5836 33.6706 28.4018 29.3059 31.4564 25.7338C33.5461 23.4059 34.545 21.0199 34.545 18.3755C34.545 11.7523 28.0177 6.36353 19.9996 6.36353ZM14.3064 22.314H11.4143C10.9961 22.314 10.6507 21.9625 10.6507 21.5386V15.6558C10.6507 15.2308 10.9961 14.8787 11.4143 14.8787C11.8325 14.8787 12.178 15.2302 12.178 15.6558V20.762H14.3064C14.728 20.762 15.0689 21.1112 15.0689 21.5391C15.0689 21.9671 14.7268 22.3146 14.3064 22.3146V22.314ZM17.2956 21.5386C17.2956 21.9625 16.9535 22.314 16.5308 22.314C16.1081 22.314 15.7706 21.9625 15.7706 21.5386V15.6558C15.7706 15.2308 16.1126 14.8787 16.5342 14.8787C16.9558 14.8787 17.2956 15.2302 17.2956 15.6558V21.5386ZM24.2541 21.5386C24.2541 21.8717 24.0433 22.1669 23.7302 22.2738C23.6524 22.2996 23.5689 22.3117 23.4888 22.3117C23.2331 22.3117 23.0149 22.2003 22.8706 22.0027L19.9092 17.9125V21.5368C19.9092 21.9607 19.5711 22.3123 19.1444 22.3123C18.7177 22.3123 18.3859 21.9607 18.3859 21.5368V15.6552C18.3859 15.3221 18.5956 15.0269 18.9069 14.9212C18.9797 14.893 19.0717 14.881 19.1422 14.881C19.3785 14.881 19.5967 15.0096 19.7422 15.1946L22.7263 19.3008V15.6552C22.7263 15.2302 23.0683 14.8781 23.4899 14.8781C23.9115 14.8781 24.2535 15.2296 24.2535 15.6552V21.538L24.2541 21.5386ZM28.9268 17.8195C29.3501 17.8195 29.6905 18.171 29.6905 18.5978C29.6905 19.0245 29.3501 19.3749 28.9268 19.3749H26.7996V20.762H28.9268C29.3501 20.762 29.6905 21.1112 29.6905 21.5391C29.6905 21.9671 29.3501 22.3146 28.9268 22.3146H26.0348C25.6166 22.3146 25.2746 21.963 25.2746 21.5391V15.6564C25.2746 15.2313 25.6166 14.8792 26.0382 14.8792H28.9302C29.3496 14.8792 29.6905 15.2308 29.6905 15.6564C29.6905 16.082 29.3501 16.4335 28.9268 16.4335H26.7996V17.8206H28.9268V17.8195Z" fill="white"/>
</g>
<defs>
<clipPath id="clip0_12_1052">
<rect width="29.0909" height="28.1818" fill="white" transform="translate(5.4541 6.36353)"/>
</clipPath>
</defs>
</svg>
