<svg width="40" height="40" viewBox="0 0 40 40" fill="none" xmlns="http://www.w3.org/2000/svg">
<rect width="40" height="40" rx="20" fill="#00A94F"/>
<path d="M27.5558 22.8148C26.4538 22.8148 25.3719 22.6423 24.3463 22.3034C23.8438 22.1319 23.2259 22.2894 22.9194 22.6044L20.8953 24.132C18.5483 22.8791 17.1022 21.4339 15.8666 19.1042L17.3497 17.1331C17.735 16.7483 17.8733 16.1862 17.7078 15.6589C17.3675 14.6281 17.1945 13.5467 17.1945 12.4442C17.1945 11.6478 16.5467 11 15.7503 11H12.4442C11.6478 11 11 11.6478 11 12.4442C11 21.5731 18.4269 29 27.5558 29C28.3522 29 29 28.3522 29 27.5558V24.2595C29 23.4631 28.3522 22.8148 27.5558 22.8148Z" fill="white"/>
</svg>
