<svg width="16" height="16" viewBox="0 0 16 16" fill="none" xmlns="http://www.w3.org/2000/svg">
<path d="M13.1286 7.16424H8.79668V2.82328C8.79668 2.37422 8.42324 2 7.9751 2C7.52697 2 7.15353 2.37422 7.15353 2.82328V7.18919H2.82158C2.37344 7.16424 2 7.53846 2 7.98753C2 8.43659 2.37344 8.81081 2.82158 8.81081H7.17842V13.1767C7.17842 13.6258 7.55187 14 8 14C8.44813 14 8.82158 13.6258 8.82158 13.1767V8.81081H13.1784C13.6266 8.81081 14 8.43659 14 7.98753C14 7.53846 13.5768 7.16424 13.1286 7.16424Z" fill="white"/>
</svg>
