<svg width="24" height="24" viewBox="0 0 24 24" fill="none" xmlns="http://www.w3.org/2000/svg">
<path d="M9.9932 3C11.8443 3 13.6218 3.71848 14.9453 5.04199C16.2685 6.36535 16.9863 8.10558 16.9864 10.0293C16.9864 11.5432 16.5049 13.0238 15.6065 14.2402L20.71 19.3438C21.0969 19.7306 21.0969 20.3231 20.71 20.71C20.52 20.9 20.2762 20.9999 20.0274 21C19.7784 21 19.5339 20.9001 19.3438 20.71L14.2432 15.6094C13.0284 16.5414 11.5768 17.0234 9.9932 17.0234C8.10428 17.0234 6.32889 16.2676 5.04398 15.0205L5.04007 15.0166C2.31996 12.2585 2.31999 7.80114 5.04007 5.04297L5.04203 5.04199C6.36551 3.7185 8.14212 3.00002 9.9932 3ZM9.9932 4.90918C8.63309 4.9092 7.34727 5.43251 6.41019 6.4043L6.40726 6.40723C4.42256 8.39194 4.42262 11.5944 6.40726 13.5791L6.41019 13.582C7.34727 14.5538 8.63309 15.0771 9.9932 15.0771C11.347 15.0771 12.6012 14.5219 13.5821 13.5762C14.5539 12.6391 15.0772 11.3533 15.0772 9.99316C15.0772 8.63564 14.5558 7.38386 13.5791 6.40723C12.6025 5.43063 11.3507 4.90918 9.9932 4.90918Z" fill="white"/>
</svg>
