<svg width="16" height="16" viewBox="0 0 16 16" fill="none" xmlns="http://www.w3.org/2000/svg">
<path d="M3.35 9.95C4.2 10.775 5.375 11.275 6.625 11.275C7.725 11.275 8.725 10.925 9.55 10.25L13.15 13.85C13.25 13.95 13.375 14 13.5 14C13.625 14 13.75 13.95 13.85 13.85C14.05 13.65 14.05 13.35 13.85 13.15L10.25 9.55C10.9 8.725 11.25 7.7 11.25 6.65C11.25 5.375 10.775 4.225 9.9 3.35C9.025 2.475 7.85 2 6.625 2C5.4 2 4.225 2.475 3.35 3.35C1.55 5.175 1.55 8.125 3.35 9.95ZM4.05 4.05C4.725 3.35 5.65 2.975 6.625 2.975C7.6 2.975 8.5 3.35 9.2 4.05C9.9 4.75 10.275 5.65 10.275 6.625C10.275 7.6 9.9 8.525 9.2 9.2C8.5 9.875 7.6 10.275 6.625 10.275C5.65 10.275 4.725 9.9 4.05 9.2C2.625 7.775 2.625 5.475 4.05 4.05Z" fill="white"/>
</svg>
