<svg width="24" height="24" viewBox="0 0 24 24" fill="none" xmlns="http://www.w3.org/2000/svg">
<path d="M20.7316 10.7647L17.0161 14.5561L17.8931 19.9079C17.976 20.4171 17.6494 20.9 17.1627 20.9868C16.9692 21.0211 16.7705 20.9881 16.597 20.8933L12.0014 18.365L7.40711 20.892C6.96992 21.1321 6.42987 20.9558 6.20035 20.4985C6.10906 20.3169 6.07755 20.109 6.11099 19.9066L6.98664 14.5561L3.26994 10.766C2.91633 10.4055 2.90926 9.81361 3.25386 9.44368C3.39145 9.29639 3.57082 9.2002 3.76563 9.17128L8.90189 8.3904L11.199 3.52147C11.417 3.05872 11.9525 2.86838 12.3949 3.09639C12.5717 3.18719 12.7144 3.33718 12.8012 3.52147L15.0983 8.3904L20.2346 9.17128C20.7232 9.24527 21.0614 9.71945 20.9907 10.2306C20.9624 10.4337 20.8717 10.6214 20.7316 10.7647Z" fill="#00A94F"/>
</svg>
