<svg width="16" height="16" viewBox="0 0 16 16" fill="none" xmlns="http://www.w3.org/2000/svg">
<mask id="mask0_53_328" style="mask-type:alpha" maskUnits="userSpaceOnUse" x="0" y="0" width="16" height="16">
<rect width="16" height="16" fill="#D9D9D9"/>
</mask>
<g mask="url(#mask0_53_328)">
<g clip-path="url(#clip0_53_328)">
<path d="M13.475 12.95H10.275C9.975 12.95 9.75 13.175 9.75 13.475C9.75 13.775 10 14 10.275 14H13.475C13.775 14 14 13.775 14 13.475C14 13.175 13.775 12.95 13.475 12.95Z" fill="white"/>
<path d="M13.475 11.2H10.275C9.975 11.2 9.75 11.425 9.75 11.725C9.75 12.025 10 12.25 10.275 12.25H13.475C13.775 12.25 14 12.025 14 11.725C14 11.425 13.775 11.2 13.475 11.2Z" fill="white"/>
<path d="M13.475 9.42499H10.275C9.975 9.42499 9.75 9.64999 9.75 9.94999C9.75 10.25 9.975 10.475 10.275 10.475H13.475C13.775 10.475 14 10.25 14 9.94999C14 9.64999 13.775 9.42499 13.475 9.42499Z" fill="white"/>
<path d="M13.475 7.67499H10.275C9.975 7.67499 9.75 7.89999 9.75 8.19999C9.75 8.49999 9.975 8.72499 10.275 8.72499H13.475C13.775 8.72499 14 8.49999 14 8.19999C14 7.89999 13.775 7.67499 13.475 7.67499Z" fill="white"/>
<path d="M7.57496 2.7C7.42496 2.3 7.04996 2 6.57496 2C6.12496 2 5.72496 2.3 5.57496 2.7H4.47496C4.37496 2.7 4.27496 2.75 4.19996 2.85C4.12496 2.95 4.12496 3.05 4.14996 3.175L4.69996 4.875H8.49996L9.04996 3.175C9.07496 3.075 9.07496 2.95 8.99996 2.85C8.92496 2.75 8.82496 2.7 8.72496 2.7H7.57496Z" fill="white"/>
<path d="M6.29995 8.59998H5.69995V9.79998H6.29995V8.59998Z" fill="white"/>
<path d="M6.29995 10.4H5.69995V11.6H6.29995V10.4Z" fill="white"/>
<path d="M9.55 7.19999C9.35 6.99999 9.125 6.82499 8.875 6.67499C8.975 6.54999 9.025 6.39999 9.025 6.24999C9.025 5.84999 8.7 5.54999 8.325 5.54999H4.825C4.425 5.54999 4.125 5.87499 4.125 6.24999C4.125 6.42499 4.2 6.54999 4.275 6.67499C2.925 7.57499 2 9.17499 2 10.825C2 13.675 4.625 14 6.6 14C7.625 14 8.45 13.9 9.075 13.7C9.05 13.625 9.05 13.55 9.05 13.475C9.05 13.125 9.2 12.825 9.425 12.6C9.2 12.375 9.05 12.075 9.05 11.725C9.05 11.375 9.2 11.075 9.425 10.85C9.2 10.625 9.05 10.325 9.05 9.97499C9.05 9.62499 9.2 9.32499 9.425 9.09999C9.2 8.87499 9.05 8.57499 9.05 8.22499C9.05 7.79999 9.25 7.42499 9.55 7.19999ZM6.9 12.175V12.475C6.9 12.65 6.775 12.775 6.6 12.775C6.425 12.775 6.3 12.65 6.3 12.475V12.175H5.4C5.225 12.175 5.1 12.05 5.1 11.875V8.32499C5.1 8.14999 5.225 8.02499 5.4 8.02499H6.3V7.72499C6.3 7.54999 6.425 7.42499 6.6 7.42499C6.775 7.42499 6.9 7.54999 6.9 7.72499V8.02499C7.55 8.02499 8.075 8.54999 8.1 9.19999C8.1 9.54999 7.95 9.87499 7.7 10.1C7.95 10.325 8.1 10.65 8.1 11C8.075 11.65 7.55 12.175 6.9 12.175Z" fill="white"/>
<path d="M6.8999 10.4V11.6C7.2249 11.6 7.4999 11.325 7.4999 11C7.4749 10.65 7.2249 10.4 6.8999 10.4Z" fill="white"/>
<path d="M6.8999 8.59998V9.79998C7.2249 9.79998 7.4999 9.52498 7.4999 9.19998C7.4749 8.87498 7.2249 8.59998 6.8999 8.59998Z" fill="white"/>
</g>
</g>
<defs>
<clipPath id="clip0_53_328">
<rect width="12" height="12" fill="white" transform="translate(2 2)"/>
</clipPath>
</defs>
</svg>
